Coordinates
nRows=12
nColumns=24

# SIMM Motion File Header:
name Coordinates
datacolumns 24
datarows 12
otherdata 1
range 0.98999999999999944000 1.01350000000000160000
endheader
time	pelvis_tx	pelvis_ty	pelvis_tz	pelvis_tilt	pelvis_list	pelvis_rotation	hip_flexion_r	hip_adduction_r	hip_rotation_r	knee_angle_r	ankle_angle_r	subtalar_angle_r	mtp_angle_r	hip_flexion_l	hip_adduction_l	hip_rotation_l	knee_angle_l	ankle_angle_l	subtalar_angle_l	mtp_angle_l	lumbar_extension	lumbar_bending	lumbar_rotation
      0.98999999999999944000	      0.60325504155572618000	      1.03509990286367230000	      0.04640886728272691800	      5.21682165660092330000	      0.06671894144737133800	      0.59333107305997956000	     -2.28417772094318970000	      1.95452920390367720000	     -3.99653608739526290000	    -11.78723519676397700000	      7.51691410239403180000	      0.07430597423289270200	      3.23204648262135310000	     17.87263829791593400000	     -3.12659380061625520000	     -3.68276930767683770000	    -59.94680068920828100000	      1.59237801685973280000	      0.10551775212609169000	      0.61867787740136559000	    -16.12892260029064700000	      1.94204205953594160000	      0.43139372704031254000
      0.99100000000000044000	      0.60314595053149467000	      1.03514428409240060000	      0.04650192194239119400	      5.21964430414223470000	      0.07169182668393825300	      0.57389042654223998000	     -2.37422194786271270000	      1.95581532168228000000	     -3.98449803434434280000	    -11.73505950733362200000	      7.52399288098612300000	      0.07346981858336514000	      3.36985982006639740000	     17.93519644784726800000	     -3.11576280843191040000	     -3.70438928798784640000	    -59.73792624206475900000	      1.60063662211958580000	      0.10835856281315125000	      0.63681572426823507000	    -16.13947906119804900000	      1.92794554883984470000	      0.45523768801104386000
      0.99350000000000016000	      0.60287201591999851000	      1.03524865234089720000	      0.04673239532934543600	      5.22636429214985830000	      0.08216351561519300000	      0.52642765621464005000	     -2.59813748075846810000	      1.96052889318960140000	     -3.95655542060332090000	    -11.60636003211608800000	      7.55036316544029610000	      0.08038292535723339000	      3.71391583941444070000	     18.08826724104943300000	     -3.09298035012157340000	     -3.76335204209664290000	    -59.20534479301881000000	      1.60217764088122340000	      0.10148083302749611000	      0.70678299713939996000	    -16.16551008991703900000	      1.89488433349582100000	      0.51366696340965223000
      0.99599999999999989000	      0.60259659212359595000	      1.03534337159947040000	      0.04696027965259979400	      5.23256623577295170000	      0.08963022179240656700	      0.48033226286999486000	     -2.82027829639749110000	      1.96766699669002820000	     -3.93105975828768720000	    -11.48053687472506500000	      7.59704669887610250000	      0.10155530123176260000	      4.03163220171254720000	     18.23643159953838100000	     -3.07664600276151120000	     -3.82956278282602720000	    -58.65824990763164200000	      1.58376161465120900000	      0.07925297500811476200	      0.79961611640582475000	    -16.19096233204438200000	      1.86509543876944580000	      0.57073157613584413000
      0.99849999999999961000	      0.60232008115850277000	      1.03542887210264030000	      0.04718628637776266900	      5.23849622608160370000	      0.09364355298267775000	      0.43529681311290058000	     -3.04106721796144000000	      1.97787868773470900000	     -3.90701798030489170000	    -11.35693055749329400000	      7.65649747655647590000	      0.13083023085634840000	      4.31903012361993530000	     18.37905193330066600000	     -3.06739756668712230000	     -3.90294902662737500000	    -58.09724761174201300000	      1.56241947465409450000	      0.05517357184885607300	      0.88927836449429731000	    -16.21608476715819300000	      1.83898795088606600000	      0.62687451361039970000
      1.00003125000000060000	      0.60215037489920509000	      1.03547705722806200000	      0.04732398747375023100	      5.24216718789109760000	      0.09424280553998022600	      0.40817197961587076000	     -3.17595625024654950000	      1.98589664743831770000	     -3.89263880862645810000	    -11.28172290608057400000	      7.69188910037855060000	      0.14845016791510643000	      4.48523935770286020000	     18.46332336319070300000	     -3.06542405056650940000	     -3.95126243885383710000	    -57.74702458868944900000	      1.55575969509762250000	      0.04628524747155488000	      0.93092538988898343000	    -16.23149105326212500000	      1.82496233408120600000	      0.66091953047894958000
      1.00200000000000110000	      0.60193196123859249000	      1.03553465707969390000	      0.04750027136594341800	      5.24706183804212500000	      0.09287831022967282800	      0.37381015856344652000	     -3.34928439000626370000	      1.99829241642880810000	     -3.87432252225265290000	    -11.18499476621472200000	      7.72857067148568880000	      0.16676914106078070000	      4.70833171260102380000	     18.56798825923131300000	     -3.06703789753314290000	     -4.01690344553543800000	    -57.28954721843200600000	      1.55946011357685380000	      0.04650558078602536800	      0.96461375606858646000	    -16.25145602209216400000	      1.80918389717452710000	      0.70433145181170953000
      1.00450000000000190000	      0.60165430135795450000	      1.03560058793231960000	      0.04772292420575400400	      5.25340270329247530000	      0.08765831455474289200	      0.33095197998744091000	     -3.56910457552660930000	      2.01745223003177140000	     -3.85114919666778380000	    -11.06189349095989800000	      7.75729799874215780000	      0.18065529406413944000	      5.02060064857822570000	     18.69511376192134100000	     -3.07574868961243200000	     -4.10591844383110070000	    -56.69703754201466900000	      1.58264229080162070000	      0.06597128269642277300	      0.97952175175447898000	    -16.27688318053349200000	      1.79282263494544500000	      0.75894089539845822000
      1.00700000000000280000	      0.60137619588624569000	      1.03565790458557030000	      0.04794388891138005900	      5.25953632116411280000	      0.07898516180513358300	      0.28897383301930968000	     -3.78817937579664090000	      2.03985718335904840000	     -3.82821792109307910000	    -10.93912909928555200000	      7.77603763538678020000	      0.18734639299235442000	      5.33973327074397550000	     18.81630964456434900000	     -3.09114183159385550000	     -4.20152839238319410000	    -56.09116608627571300000	      1.61293070710734200000	      0.09642385352515799000	      0.98102743941762260000	    -16.30201079196056900000	      1.78010561043703560000	      0.81284751482387640000
      1.00950000000000360000	      0.60109752586690690000	      1.03570625031004780000	      0.04816238445599938000	      5.26526939615652180000	      0.06763490267843597100	      0.24805635919289809000	     -4.00625978970681640000	      2.06452391206990750000	     -3.80601295502705830000	    -10.81765657621347100000	      7.80204120610431410000	      0.19338938395721014000	      5.62894508392821710000	     18.93201212460672900000	     -3.11190702717358380000	     -4.30399684904588840000	    -55.47125507519122300000	      1.63032253893514190000	      0.12082066476143860000	      0.99510655813137228000	    -16.32662844927578800000	      1.77025947424769090000	      0.86567986949007791000
      1.01100000000000080000	      0.60093003777878795000	      1.03573100083804050000	      0.04829190427014214100	      5.26854491604831580000	      0.05980465797563656200	      0.22414110725005493000	     -4.13669643483972130000	      2.08008030382407760000	     -3.79325443126231440000	    -10.74558201388085600000	      7.82607185819076360000	      0.19859437703090552000	      5.77906925349948960000	     18.99885026662363400000	     -3.12643777320172410000	     -4.36877484799443480000	    -55.09233871020270400000	      1.62736080557555060000	      0.12596810195590236000	      1.01986979683113170000	    -16.34118618844453200000	      1.76548630120750680000	      0.89667867818502833000
      1.01350000000000160000	      0.60065046262089494000	      1.03576540563404150000	      0.04850482381945919700	      5.27380054353132980000	      0.04512480578409407100	      0.18539434260964605000	     -4.35358703229726630000	      2.10717524762072820000	     -3.77297761925609400000	    -10.62648702932732700000	      7.87610240339772890000	      0.20848706831177150000	      6.01088348876188580000	     19.10590871155108400000	     -3.15378646793755820000	     -4.48215438587890970000	    -54.44911348479830300000	      1.59505110263655750000	      0.11356303720088781000	      1.10381988180962430000	    -16.36517587341744200000	      1.75938859542530190000	      0.94712209425527738000
